<svg width="177" height="178" viewBox="0 0 177 178" fill="none" xmlns="http://www.w3.org/2000/svg">
<path d="M66.3729 33.375C41.9366 33.375 22.1243 66.75 22.1243 66.75C22.1243 66.75 41.9366 100.125 66.3729 100.125C90.8092 100.125 110.621 66.75 110.621 66.75C110.621 66.75 90.8092 33.375 66.3729 33.375ZM66.3729 89C54.1547 89 44.2486 79.0376 44.2486 66.75C44.2486 54.4624 54.1547 44.5 66.3729 44.5C78.591 44.5 88.4972 54.4624 88.4972 66.75C88.4972 79.0376 78.591 89 66.3729 89Z" fill="#165751"/>
<path d="M66.373 77.875C72.4824 77.875 77.4351 72.8942 77.4351 66.75C77.4351 60.6058 72.4824 55.625 66.373 55.625C60.2635 55.625 55.3108 60.6058 55.3108 66.75C55.3108 72.8942 60.2635 77.875 66.373 77.875Z" fill="#165751"/>
<path d="M66.3729 133.5C82.7117 133.5 97.6456 127.537 109.206 117.697L118.559 127.103C117.497 129.361 116.816 131.742 116.822 134.173C116.816 138.423 118.454 142.728 121.684 145.971L148.001 172.438C151.225 175.686 155.506 177.333 159.732 177.327C163.958 177.333 168.239 175.686 171.463 172.438C174.694 169.195 176.331 164.889 176.325 160.639C176.331 156.39 174.694 152.084 171.463 148.841L145.147 122.375C141.922 119.127 137.641 117.48 133.415 117.486C130.998 117.48 128.631 118.17 126.385 119.232L117.027 109.82C126.817 98.2004 132.746 83.1816 132.746 66.75C132.74 29.8818 103.033 0.0055625 66.3729 0C29.7129 0.0055625 0.00553108 29.8818 0 66.75C0.00553108 103.618 29.7129 133.494 66.3729 133.5ZM129.505 130.24C130.6 129.145 131.983 128.616 133.415 128.611C134.848 128.616 136.23 129.145 137.326 130.24L163.642 156.707C164.732 157.808 165.258 159.199 165.263 160.639C165.258 162.08 164.732 163.471 163.642 164.572C162.547 165.668 161.165 166.196 159.732 166.202C158.299 166.196 156.917 165.668 155.822 164.572L129.505 138.106C128.415 137.004 127.89 135.614 127.884 134.173C127.89 132.732 128.415 131.342 129.505 130.24L125.594 126.308L129.505 130.24ZM27.2627 27.4176C37.2905 17.3439 51.0795 11.125 66.3729 11.125C81.6664 11.125 95.4553 17.3439 105.483 27.4176C115.5 37.5024 121.684 51.3697 121.684 66.75C121.684 82.1303 115.5 95.9976 105.483 106.082C95.4553 116.156 81.6664 122.375 66.3729 122.375C51.0795 122.375 37.2905 116.156 27.2627 106.082C17.2459 95.9976 11.0622 82.1303 11.0622 66.75C11.0622 51.3697 17.2459 37.5024 27.2627 27.4176Z" fill="#165751"/>
</svg>
